<?xml version="1.0" standalone="no"?>
<!DOCTYPE svg PUBLIC "-//W3C//DTD SVG 20010904//EN"
 "http://www.w3.org/TR/2001/REC-SVG-20010904/DTD/svg10.dtd">
<svg version="1.0" xmlns="http://www.w3.org/2000/svg"
 width="512.000000pt" height="512.000000pt" viewBox="0 0 512.000000 512.000000"
 preserveAspectRatio="xMidYMid meet">
<metadata>
Created by potrace 1.15, written by Peter Selinger 2001-2017
</metadata>
<g transform="translate(0.000000,512.000000) scale(0.100000,-0.100000)"
fill="#000000" stroke="none">
<path d="M2265 4580 c-27 -4 -43 -8 -35 -9 13 -1 12 -3 -2 -11 -19 -12 -48 -3
-48 14 0 6 -6 4 -13 -5 -17 -22 -55 -41 -67 -34 -6 3 -32 -6 -59 -20 -41 -23
-52 -25 -71 -15 -13 7 -20 8 -16 2 3 -6 1 -14 -6 -18 -7 -5 -4 -10 11 -16 13
-4 21 -14 19 -20 -4 -12 -41 -18 -120 -20 -16 -1 -28 -7 -28 -13 0 -7 -21 -29
-47 -49 -43 -32 -49 -34 -60 -19 -13 17 -18 8 -14 -24 2 -15 -36 -36 -49 -28
-6 4 -24 -7 -41 -24 -17 -17 -37 -32 -45 -32 -27 -3 -32 -4 -40 -11 -4 -5 -2
-8 5 -8 8 0 11 -8 8 -20 -3 -11 0 -20 6 -21 7 0 22 -2 34 -3 12 -1 20 1 17 5
-8 14 37 32 49 20 8 -8 2 -19 -19 -41 -16 -16 -34 -30 -40 -30 -6 0 -17 -7
-24 -15 -7 -8 -20 -15 -29 -15 -13 1 -13 3 3 15 11 8 15 15 8 15 -7 0 -9 7 -5
17 6 15 5 16 -9 3 -9 -8 -12 -17 -6 -19 12 -4 -21 -41 -37 -41 -7 0 -15 -10
-18 -21 -5 -17 -11 -20 -31 -15 -16 4 -38 0 -56 -9 -37 -19 -39 -29 -5 -21 24
6 25 5 13 -14 -7 -11 -16 -20 -20 -20 -5 0 -8 -4 -8 -10 0 -5 16 1 36 15 20
14 42 21 51 18 12 -5 15 -2 10 9 -4 12 3 19 26 27 31 10 32 10 12 -7 -11 -10
-25 -27 -31 -37 -6 -11 -16 -20 -21 -20 -5 0 -17 -8 -27 -17 -10 -10 -21 -18
-26 -18 -5 0 -12 -9 -15 -20 -3 -11 -13 -20 -21 -20 -7 0 -39 -22 -69 -50 -56
-51 -71 -60 -60 -37 4 6 -13 -9 -37 -35 -24 -25 -53 -49 -66 -53 -12 -3 -20
-10 -17 -14 2 -4 -25 -36 -60 -70 -36 -34 -65 -68 -65 -76 0 -8 -7 -15 -15
-15 -8 0 -15 -7 -15 -15 0 -8 -16 -29 -35 -48 -39 -38 -36 -57 4 -27 46 33
101 86 101 97 0 6 20 27 44 47 38 31 46 34 56 21 11 -14 7 -19 -13 -16 -4 1
-11 -9 -16 -22 -9 -24 -41 -56 -41 -41 0 14 -88 -77 -93 -97 -3 -12 0 -16 9
-12 8 3 12 9 9 13 -3 5 16 24 42 44 27 19 58 44 70 56 15 15 22 17 26 8 2 -7
11 4 20 25 9 21 21 36 26 33 5 -4 21 8 34 26 19 24 34 32 64 34 35 3 37 2 19
-11 -24 -18 -40 -19 -30 -2 5 8 2 8 -9 -2 -18 -15 -23 -26 -7 -16 12 7 9 -23
-5 -45 -10 -18 -2 -11 89 68 33 29 64 52 69 52 4 0 22 13 39 29 26 24 38 28
67 25 23 -3 29 -1 18 3 -16 8 -16 9 3 26 22 18 45 23 35 7 -10 -17 12 -11 26
7 12 15 12 16 -3 10 -10 -3 -18 -2 -18 4 0 6 -6 7 -12 3 -9 -6 -9 -3 0 9 8 9
11 20 9 25 -3 4 -2 13 2 20 5 9 12 8 27 -3 10 -9 13 -14 5 -13 -7 2 -15 -3
-17 -10 -1 -7 0 -8 2 -3 3 6 12 7 20 4 9 -3 14 2 14 16 0 12 6 21 15 21 12 0
14 -4 7 -16 -5 -9 -7 -27 -4 -40 4 -22 6 -22 25 -9 25 17 41 20 32 4 -7 -10
-55 -32 -65 -29 -3 1 -4 7 -2 13 2 7 0 9 -4 5 -17 -17 -12 -56 7 -61 10 -3 19
-2 19 2 0 4 6 15 13 26 11 14 16 15 22 5 6 -9 4 -11 -6 -6 -8 4 -6 1 4 -7 16
-14 17 -16 2 -31 -9 -9 -22 -13 -28 -9 -7 3 -9 3 -5 -2 4 -4 2 -15 -5 -23 -9
-13 -9 -14 1 -8 6 4 12 2 12 -4 0 -6 -12 -15 -26 -20 -25 -10 -62 -40 -49 -40
10 0 69 34 80 46 5 6 28 22 50 35 22 13 50 34 63 46 34 34 82 57 94 45 7 -7 2
-12 -13 -17 -24 -7 -69 -51 -69 -67 0 -5 9 -4 21 2 11 7 23 10 25 7 2 -2 -12
-12 -31 -23 -19 -10 -35 -24 -35 -30 0 -6 -9 -14 -20 -17 -11 -3 -20 -10 -20
-17 0 -6 5 -8 11 -4 7 4 10 1 7 -7 -3 -8 -14 -19 -26 -25 -12 -6 -19 -14 -15
-17 10 -10 -10 -8 -26 2 -17 11 -68 -21 -79 -48 -3 -9 -23 -33 -43 -55 -21
-21 -35 -45 -32 -52 3 -8 -1 -14 -9 -14 -20 0 -61 -48 -81 -95 -13 -31 -14
-36 -2 -21 8 11 17 17 20 14 8 -8 -44 -68 -59 -68 -20 0 -75 -63 -78 -90 -5
-34 -48 -90 -70 -90 -11 0 -18 -7 -18 -20 0 -24 -98 -210 -111 -210 -5 0 -9
-8 -9 -18 0 -9 -8 -33 -19 -52 -34 -65 -77 -330 -52 -330 6 0 11 -7 11 -15 0
-20 30 -80 70 -138 46 -69 74 -75 273 -64 15 1 27 5 27 9 0 4 16 14 36 23 19
8 33 19 30 24 -8 13 60 65 73 56 6 -3 29 11 52 32 23 21 46 38 53 38 20 1 35
15 30 28 -2 7 6 19 18 25 13 7 31 26 40 42 9 17 22 30 28 30 6 0 9 -4 6 -8 -7
-11 40 -9 51 2 5 5 3 6 -4 2 -7 -4 -13 -3 -13 3 0 6 10 13 23 16 12 3 30 20
39 36 10 17 22 28 26 25 5 -3 24 10 43 29 19 19 42 35 51 35 9 0 20 5 23 10 4
6 11 7 17 4 6 -4 8 -3 5 3 -4 6 5 20 18 33 13 13 22 26 20 30 -8 12 22 63 55
95 34 32 42 59 9 29 -22 -19 -22 -19 -11 1 6 11 33 43 59 71 55 58 115 130
156 186 16 21 32 38 37 38 4 0 10 8 13 19 3 14 11 17 31 14 19 -4 26 -1 26 10
0 16 28 29 66 31 24 2 94 69 94 90 0 8 20 30 45 49 24 19 59 51 77 72 18 20
44 41 56 46 13 5 26 18 29 29 3 11 10 20 15 20 5 0 7 -4 4 -9 -3 -4 5 -6 17
-4 32 6 65 -30 47 -52 -7 -9 -13 -33 -12 -55 2 -33 -1 -37 -17 -33 -17 4 -18
-2 -17 -89 1 -84 4 -100 33 -158 18 -37 53 -85 79 -110 27 -25 42 -37 35 -27
-7 9 -11 17 -7 17 10 0 48 -24 68 -43 11 -10 33 -23 50 -29 16 -6 25 -14 20
-17 -6 -4 8 -7 31 -7 23 -1 94 -3 157 -6 86 -3 120 -1 137 10 12 7 49 22 83
32 43 13 75 31 108 62 26 24 57 51 70 60 13 9 25 24 27 34 2 11 4 21 5 24 1 3
2 9 1 13 -2 10 40 46 53 47 5 0 2 -8 -5 -17 -13 -16 -12 -17 4 -4 12 9 14 17
7 26 -5 6 -7 15 -3 18 3 4 2 7 -3 7 -13 -1 -37 -22 -50 -45 -6 -11 -15 -20
-20 -20 -5 0 -15 -4 -21 -8 -7 -5 -13 -6 -13 -3 0 7 209 216 217 216 3 0 2 -7
-1 -16 -3 -9 -2 -12 5 -9 6 4 8 13 5 20 -7 19 32 66 53 64 31 -3 40 1 52 24
11 21 11 21 -17 -3 l-28 -25 22 28 c32 43 110 109 121 103 13 -9 61 33 55 48
-3 8 -1 17 5 20 6 4 8 13 5 20 -3 8 23 40 63 76 37 34 62 59 56 56 -20 -11
-15 5 9 32 13 14 18 22 11 18 -6 -3 -16 2 -22 11 -10 17 -12 15 -15 -17 0 -8
-7 -14 -15 -12 -12 3 -12 0 -2 -12 16 -18 5 -39 -43 -85 -46 -45 -47 -28 -1
19 33 34 33 35 11 35 -13 0 -22 -3 -19 -7 2 -5 -1 -8 -7 -8 -6 0 -10 -6 -8
-12 3 -18 -24 -58 -39 -58 -19 0 -16 27 3 34 9 4 14 9 10 13 -3 3 5 21 19 39
14 18 25 37 25 43 0 6 11 13 24 17 15 3 29 17 35 35 5 16 7 28 3 28 -20 -3
-21 3 -6 26 15 23 43 37 29 15 -3 -5 1 -10 10 -10 8 0 19 8 22 18 4 9 37 50
75 91 37 40 68 78 68 83 0 7 -4 7 -12 0 -7 -5 -24 -13 -38 -17 -20 -5 -17 1
20 34 46 41 46 57 0 21 -28 -22 -40 -25 -40 -10 0 6 11 15 23 19 13 5 41 33
62 63 21 29 29 45 18 35 -12 -10 -32 -19 -45 -20 -13 -1 -32 -10 -42 -19 -16
-16 -36 -23 -59 -19 -4 0 -6 -2 -6 -6 3 -19 -2 -33 -12 -33 -6 0 -24 -9 -40
-21 -16 -11 -33 -17 -39 -14 -5 3 -10 0 -10 -8 0 -7 -14 -26 -32 -43 -18 -16
-26 -21 -19 -11 11 14 11 17 0 17 -9 1 -7 6 7 18 19 16 19 19 5 34 -13 13 -19
14 -33 4 -10 -7 -15 -16 -11 -20 4 -3 -13 -24 -38 -46 -24 -23 -45 -36 -47
-30 -5 13 -42 -17 -42 -33 0 -6 7 -2 15 9 8 10 15 14 15 7 0 -14 -65 -69 -102
-86 -16 -6 -28 -18 -28 -25 0 -7 -7 -20 -15 -29 -8 -8 -13 -18 -10 -22 2 -5
-7 -19 -20 -31 -14 -13 -25 -18 -25 -11 0 6 7 14 15 17 8 4 13 9 10 13 -2 4 3
20 11 36 22 42 10 41 -28 -5 -19 -22 -39 -40 -43 -40 -4 0 0 9 10 20 17 19 33
61 17 45 -4 -4 -7 -11 -7 -16 0 -5 -4 -10 -10 -10 -5 -1 -15 -14 -22 -29 -6
-15 -23 -36 -38 -46 -15 -11 -35 -27 -46 -36 -10 -10 -21 -17 -23 -15 -3 1
-21 -17 -41 -40 -20 -24 -41 -43 -46 -43 -16 0 -50 -34 -71 -72 -19 -33 -38
-49 -38 -33 0 9 74 105 80 105 4 0 16 14 28 30 29 38 22 38 -22 -1 -20 -17
-40 -28 -45 -25 -5 4 -12 -2 -15 -11 -4 -10 -47 -61 -98 -113 -65 -67 -90 -88
-85 -70 71 261 54 420 -58 530 -48 47 -63 51 -180 55 -126 4 -122 4 -105 15
11 7 3 10 -30 10 -25 0 -52 -5 -60 -10 -13 -8 -12 -10 3 -10 39 0 9 -23 -58
-44 -73 -24 -209 -90 -260 -127 -16 -11 -22 -19 -12 -15 9 3 17 3 17 1 0 -8
-79 -55 -97 -58 -31 -5 -76 -39 -155 -119 -43 -43 -84 -78 -90 -78 -7 -1 -33
-26 -58 -57 -25 -31 -58 -65 -75 -75 -22 -13 -30 -26 -30 -45 0 -18 -5 -27
-14 -25 -7 1 -20 -3 -29 -10 -14 -11 -15 -10 -8 7 10 28 -131 -113 -149 -148
-8 -15 -12 -34 -9 -42 3 -8 -6 -25 -20 -38 -14 -13 -26 -29 -26 -35 0 -6 -12
-10 -27 -9 -24 2 -30 -3 -38 -30 -5 -19 -18 -36 -30 -39 -11 -4 -30 -15 -42
-27 -17 -15 -20 -24 -12 -39 8 -15 4 -24 -21 -49 -16 -17 -30 -34 -30 -37 -1
-13 -35 -48 -52 -55 -23 -8 -23 10 -1 37 10 12 -8 -4 -40 -34 -31 -30 -57 -60
-57 -66 0 -7 -20 -26 -45 -43 -25 -17 -45 -26 -45 -20 0 6 -4 8 -9 4 -20 -12
-22 18 -2 36 12 11 21 27 20 37 0 14 -2 13 -8 -3 -5 -11 -18 -29 -30 -39 -19
-17 -21 -17 -21 -2 0 9 6 19 14 22 8 3 22 22 30 42 9 20 24 48 34 62 9 14 26
40 37 58 21 34 30 38 40 22 9 -15 52 17 69 51 12 24 12 30 0 40 -16 13 -19 45
-4 54 6 4 8 15 5 24 -3 11 3 28 16 42 l20 24 -5 -32 c-6 -35 4 -42 24 -18 14
17 35 21 25 5 -3 -5 1 -10 9 -10 8 0 18 5 22 12 4 7 3 8 -4 4 -17 -10 -15 19
1 33 8 6 17 8 20 4 4 -3 7 4 7 16 0 17 4 21 16 17 8 -3 12 -2 9 4 -3 6 -2 10
2 10 5 0 19 18 33 40 14 22 29 40 35 40 6 0 16 9 23 20 7 11 19 20 27 20 8 0
15 7 15 15 0 8 5 15 11 15 6 0 8 -8 5 -17 -4 -11 4 -7 19 10 27 30 24 58 -6
52 -18 -4 -18 -3 -2 23 l17 27 -32 -29 c-18 -17 -32 -34 -32 -39 0 -5 -13 -25
-30 -44 -16 -18 -30 -38 -30 -44 0 -6 -5 -7 -12 -3 -6 4 -8 3 -4 -4 3 -6 1
-14 -5 -18 -8 -4 -9 -3 -5 4 4 7 2 12 -4 12 -6 0 -3 11 6 25 9 14 19 24 21 21
6 -6 48 36 48 47 0 5 16 25 36 45 19 21 53 60 74 87 48 61 93 105 108 105 6 0
1 -9 -11 -21 -12 -11 -20 -25 -16 -30 3 -5 2 -9 -3 -8 -19 3 -33 -2 -33 -12 0
-6 5 -7 13 -2 6 4 18 8 26 10 8 1 28 16 45 34 17 17 25 28 17 24 -8 -5 -7 2 5
21 22 36 54 68 54 55 0 -5 -4 -13 -10 -16 -5 -3 -10 -14 -10 -23 1 -13 6 -10
23 11 13 15 28 27 35 27 7 0 12 7 12 16 0 11 -6 14 -20 9 -31 -10 -24 9 21 62
55 63 56 65 30 20 -13 -21 -21 -40 -18 -43 9 -9 42 51 42 76 0 14 5 24 12 23
7 -2 17 6 23 18 11 19 10 20 -11 9 -19 -11 -21 -10 -16 4 4 9 4 16 1 16 -2 0
-9 -12 -14 -26 -6 -14 -14 -22 -20 -19 -5 3 -7 0 -4 -8 3 -9 -3 -16 -15 -20
-14 -3 -18 -1 -14 9 8 20 -4 17 -45 -13 -36 -26 -36 -25 6 15 23 23 42 46 42
52 0 5 5 10 10 10 6 0 10 -7 10 -15 0 -10 12 -2 31 20 17 19 35 32 40 29 5 -3
16 11 26 31 11 22 19 31 24 23 6 -9 11 -9 23 1 9 8 16 18 16 23 0 6 -7 5 -16
-3 -13 -11 -13 -7 2 24 17 36 12 66 -6 37 -7 -10 -10 -11 -10 -2 0 7 14 26 30
44 26 27 43 67 23 55 -5 -3 -8 21 -8 54 0 41 4 59 13 59 18 0 14 21 -8 50 -21
27 -27 55 -9 44 6 -3 3 8 -6 25 -9 18 -23 35 -30 38 -8 3 -12 10 -8 16 4 6 0
8 -11 4 -10 -4 -24 1 -36 13 -11 11 -21 19 -22 18 -2 0 -25 -4 -53 -8z"/>
<path d="M1248 1836 c-9 -9 -20 -35 -23 -59 -7 -48 11 -575 21 -601 9 -22 41
-38 63 -31 31 9 41 49 34 129 l-6 74 49 7 c127 17 244 68 276 120 10 16 18 48
18 70 0 91 -102 235 -197 277 -65 29 -212 37 -235 14z m187 -115 c45 -20 95
-72 126 -132 19 -38 19 -42 4 -60 -21 -22 -125 -58 -180 -62 l-40 -2 -7 45
c-3 25 -7 89 -7 143 l-1 99 33 -7 c17 -4 50 -15 72 -24z"/>
<path d="M2148 1834 c-3 -3 -62 -11 -131 -19 -169 -19 -203 -29 -222 -65 -17
-33 -40 -205 -39 -295 1 -96 24 -222 48 -257 31 -47 71 -66 166 -77 105 -14
260 -14 293 -2 31 12 41 41 26 75 l-12 26 -152 0 c-84 0 -167 3 -184 6 -41 8
-60 45 -68 128 l-6 64 121 3 c111 4 122 6 146 28 31 29 31 32 7 62 -19 23 -23
24 -146 21 l-126 -4 6 74 c4 40 11 77 15 82 5 5 51 12 102 17 103 10 190 26
225 42 55 25 31 97 -32 97 -17 0 -34 -2 -37 -6z"/>
<path d="M3440 1794 c-11 -12 -11 -33 -1 -109 7 -52 16 -197 21 -322 5 -126
14 -244 20 -264 12 -41 36 -53 72 -35 23 12 23 13 20 161 -5 205 -19 431 -33
496 -15 76 -66 114 -99 73z"/>
<path d="M4341 1793 l-24 -16 7 -166 c12 -296 30 -366 100 -389 22 -7 111 -15
197 -19 174 -7 189 -3 189 47 0 49 -19 55 -189 58 -98 3 -158 8 -163 15 -10
17 -19 107 -26 284 -7 138 -10 165 -26 182 -23 25 -34 26 -65 4z"/>
<path d="M3245 1784 c-32 -12 -64 -14 -158 -9 -100 6 -122 4 -143 -10 -18 -12
-24 -23 -22 -43 4 -36 39 -52 116 -52 l62 0 0 -47 c1 -132 20 -453 29 -476 8
-21 17 -27 40 -27 51 0 55 14 53 213 -1 100 -5 214 -8 253 l-6 71 53 17 c85
28 101 41 97 84 -3 35 -5 37 -38 39 -19 1 -53 -5 -75 -13z"/>
<path d="M2598 1781 c-85 -28 -177 -124 -210 -220 -43 -131 -22 -261 57 -349
79 -88 185 -113 276 -66 55 28 129 109 129 142 0 66 -54 70 -116 7 -74 -74
-138 -79 -204 -16 -96 91 -67 287 54 369 67 45 93 43 113 -8 11 -27 24 -42 40
-46 31 -8 73 20 73 49 -1 31 -33 98 -59 121 -24 22 -109 31 -153 17z"/>
<path d="M832 1770 c-63 -27 -122 -101 -122 -153 0 -75 38 -111 201 -192 52
-26 104 -56 117 -68 28 -26 28 -61 1 -88 -18 -18 -28 -20 -67 -14 -26 3 -71
17 -101 31 -80 36 -121 29 -121 -21 0 -30 34 -59 105 -90 72 -32 149 -42 198
-26 73 24 126 120 112 203 -10 54 -53 93 -190 169 -64 35 -123 71 -132 81 -16
17 -15 20 4 40 23 22 102 35 147 24 16 -4 37 -23 52 -49 41 -65 72 -75 99 -33
32 48 -15 145 -83 173 -43 18 -189 27 -220 13z"/>
<path d="M3968 1758 c-9 -7 -70 -117 -136 -244 -66 -126 -134 -252 -151 -279
-37 -59 -38 -65 -6 -95 37 -34 62 -17 126 84 l54 85 60 0 c33 0 87 -8 120 -17
58 -16 61 -19 92 -77 39 -73 60 -89 97 -76 18 8 26 18 26 36 0 13 -33 111 -74
217 -40 106 -83 223 -95 260 -32 97 -74 136 -113 106z"/>
</g>
</svg>
