<?xml version="1.0" standalone="no"?>
<!DOCTYPE svg PUBLIC "-//W3C//DTD SVG 20010904//EN"
 "http://www.w3.org/TR/2001/REC-SVG-20010904/DTD/svg10.dtd">
<svg version="1.0" xmlns="http://www.w3.org/2000/svg"
 width="512.000000pt" height="256.000000pt" viewBox="0 0 512.000000 256.000000"
 preserveAspectRatio="xMidYMid meet">
<metadata>
Created by potrace 1.15, written by Peter Selinger 2001-2017
</metadata>
<g transform="translate(0.000000,256.000000) scale(0.100000,-0.100000)"
fill="#000000" stroke="none">
<path d="M695 1715 c-24 -23 -25 -29 -25 -162 0 -259 19 -603 36 -634 20 -40
58 -48 90 -18 24 23 25 28 23 129 l-3 104 80 12 c155 22 287 83 321 148 45 86
-3 221 -121 339 -80 79 -159 107 -302 107 -66 0 -78 -3 -99 -25z m250 -137
c64 -34 155 -151 155 -199 0 -36 -42 -59 -159 -89 -133 -35 -126 -45 -129 157
l-2 171 52 -12 c29 -7 67 -20 83 -28z"/>
<path d="M1798 1714 c-4 -3 -80 -14 -170 -24 -201 -23 -235 -33 -259 -80 -18
-35 -35 -155 -45 -320 -7 -101 17 -264 47 -327 41 -84 117 -111 344 -120 187
-7 240 -1 262 33 15 23 15 28 0 58 l-15 33 -189 7 c-223 9 -250 13 -275 47
-19 24 -43 151 -34 175 3 8 47 14 123 19 140 8 186 18 213 47 26 28 25 34 -6
65 l-25 25 -156 -7 -155 -7 5 38 c3 22 9 65 12 96 4 32 10 60 15 63 5 3 69 12
143 20 148 16 216 29 257 50 72 37 42 115 -43 115 -24 0 -46 -3 -49 -6z"/>
<path d="M3398 1679 c-22 -12 -22 -40 -3 -184 8 -60 15 -169 15 -241 0 -160
17 -384 33 -433 11 -32 16 -36 50 -39 69 -6 70 -3 63 218 -15 448 -37 640 -77
673 -24 19 -55 22 -81 6z"/>
<path d="M4502 1670 l-34 -21 7 -152 c8 -211 23 -363 40 -422 28 -98 66 -112
342 -122 151 -5 175 -4 197 11 29 19 35 60 13 91 -16 21 -134 34 -319 35 -60
0 -108 3 -108 8 0 4 -4 34 -10 67 -5 33 -14 155 -19 270 -10 208 -10 210 -36
233 -32 27 -32 27 -73 2z"/>
<path d="M3145 1655 c-66 -21 -77 -22 -188 -12 -139 11 -193 2 -203 -37 -7
-29 9 -61 38 -77 11 -6 56 -13 98 -16 l78 -6 6 -81 c3 -44 8 -166 12 -271 3
-104 10 -212 15 -240 14 -73 52 -95 100 -56 24 19 24 21 22 213 -1 106 -4 246
-8 310 l-6 117 28 7 c48 12 137 54 151 71 29 39 -3 104 -50 102 -13 -1 -54
-11 -93 -24z"/>
<path d="M2307 1628 c-118 -64 -189 -161 -223 -305 -56 -236 97 -468 306 -468
73 1 123 22 199 83 76 62 102 130 63 165 -34 31 -66 21 -125 -37 -87 -86 -164
-97 -239 -36 -53 44 -81 108 -81 189 -1 114 48 216 131 271 84 55 111 52 147
-16 27 -52 65 -66 103 -37 34 26 35 70 2 138 -32 65 -68 85 -155 85 -59 0 -79
-5 -128 -32z"/>
<path d="M191 1639 c-49 -15 -138 -108 -146 -153 -20 -106 29 -162 226 -259
187 -91 222 -134 158 -198 -18 -18 -28 -20 -78 -14 -31 4 -86 20 -123 36 -77
33 -118 37 -141 11 -43 -47 7 -103 138 -154 109 -42 192 -44 258 -5 56 33 95
95 104 165 12 109 -31 157 -241 271 -150 82 -176 103 -160 129 22 36 75 54
144 48 70 -6 93 -22 132 -94 14 -27 23 -32 52 -32 54 0 72 33 56 101 -15 62
-56 111 -112 133 -50 21 -219 30 -267 15z"/>
<path d="M4022 1613 c-203 -385 -301 -568 -333 -618 -21 -34 -39 -71 -39 -83
0 -21 43 -62 66 -62 25 0 74 52 129 140 l57 90 58 0 c64 0 213 -32 236 -50 7
-7 25 -37 39 -68 14 -31 33 -64 42 -74 19 -21 72 -24 98 -5 25 19 18 48 -55
232 -32 83 -86 225 -119 315 -65 176 -81 200 -137 200 -22 0 -37 -6 -42 -17z
m88 -322 c16 -45 30 -87 30 -92 0 -6 -12 -8 -27 -5 -16 3 -52 8 -80 11 -29 4
-53 12 -53 18 0 6 19 48 42 94 47 93 43 94 88 -26z"/>
</g>
</svg>
